<svg width="126" height="95" viewBox="0 0 126 95" fill="none" xmlns="http://www.w3.org/2000/svg">
<g clip-path="url(#clip0_4_29)">
<rect x="6" y="13" width="115" height="79" fill="#333333"/>
<path d="M103.605 65.5234V68.5703H108.404L108.527 68.4531H108.773L108.896 68.3359H109.02L109.389 67.9844V67.8672L109.512 67.75V67.6328L109.635 67.5156V66.6953L109.512 66.5781V66.4609L109.389 66.3438V66.2266L109.02 65.875H108.896L108.773 65.7578H108.527L108.404 65.6406H107.912L107.789 65.5234H103.605Z" fill="#ECE8E5"/>
<path d="M56.2324 60.8359V61.0703L56.1094 61.1875V61.4219L55.9863 61.5391V61.7734L55.8633 61.8906V62.125L55.7402 62.2422V62.4766L55.6172 62.5938V62.7109L55.4941 62.8281V63.0625L55.3711 63.1797V63.4141L55.248 63.5312V63.7656L55.125 63.8828V64.1172L55.002 64.2344V64.4688L54.8789 64.5859V64.7031L54.7559 64.8203V65.0547L54.6328 65.1719V65.4062L54.5098 65.5234V65.7578L54.3867 65.875V65.9922H58.2012V65.875L58.0781 65.7578V65.6406L57.9551 65.5234V65.2891L57.832 65.1719V64.9375L57.709 64.8203V64.5859L57.5859 64.4688V64.2344L57.4629 64.1172V64L57.3398 63.8828V63.6484L57.2168 63.5312V63.2969L57.0938 63.1797V62.9453L56.9707 62.8281V62.5938L56.8477 62.4766V62.2422L56.7246 62.125V62.0078L56.6016 61.8906V61.6562L56.4785 61.5391V61.3047L56.3555 61.1875V60.9531L56.2324 60.8359Z" fill="#ECE8E5"/>
<path d="M103.605 60.1328V63.0625H107.789L107.912 62.9453H108.158L108.281 62.8281H108.404L108.527 62.7109H108.65L109.02 62.3594V62.2422L109.143 62.125V61.0703L109.02 60.9531V60.8359L108.896 60.7188V60.6016L108.773 60.4844H108.65L108.527 60.3672H108.404L108.281 60.25H108.035L107.912 60.1328H103.605Z" fill="#ECE8E5"/>
<path d="M89.7012 60.1328L89.5781 60.25H89.209L89.0859 60.3672H88.8398L88.7168 60.4844H88.5938L88.4707 60.6016H88.3477L88.1016 60.8359H87.9785L87.1172 61.6562V61.7734L86.8711 62.0078V62.125L86.748 62.2422V62.3594L86.625 62.4766V62.5938L86.502 62.7109V62.8281L86.3789 62.9453V63.2969L86.2559 63.4141V65.4062L86.3789 65.5234V65.7578L86.502 65.875V66.1094L86.625 66.2266V66.3438L86.748 66.4609V66.5781L86.8711 66.6953V66.8125L87.1172 67.0469V67.1641L87.7324 67.75H87.8555L88.1016 67.9844H88.2246L88.4707 68.2188H88.5938L88.7168 68.3359H88.9629L89.0859 68.4531H89.332L89.4551 68.5703H89.9473L90.0703 68.6875H91.0547L91.1777 68.5703H91.6699L91.793 68.4531H92.0391L92.1621 68.3359H92.4082L92.5312 68.2188H92.6543L92.7773 68.1016H92.9004L93.1465 67.8672H93.2695L94.1309 67.0469V66.9297L94.377 66.6953V66.5781L94.5 66.4609V66.3438L94.623 66.2266V66.1094L94.7461 65.9922V65.7578L94.8691 65.6406V65.2891L94.9922 65.1719V63.5312L94.8691 63.4141V63.0625L94.7461 62.9453V62.7109L94.623 62.5938V62.4766L94.5 62.3594V62.2422L94.2539 62.0078V61.8906L93.8848 61.5391V61.4219L93.5156 61.0703H93.3926L93.0234 60.7188H92.9004L92.7773 60.6016H92.6543L92.5312 60.4844H92.4082L92.2852 60.3672H92.0391L91.916 60.25H91.6699L91.5469 60.1328H89.7012Z" fill="#ECE8E5"/>
<path d="M25.1016 60.1328L24.9785 60.25H24.6094L24.4863 60.3672H24.3633L24.2402 60.4844H24.1172L23.9941 60.6016H23.8711L23.748 60.7188H23.625L23.3789 60.9531H23.2559L22.5176 61.6562V61.7734L22.2715 62.0078V62.125L22.1484 62.2422V62.3594L22.0254 62.4766V62.5938L21.9023 62.7109V62.9453L21.7793 63.0625V63.4141L21.6562 63.5312V65.2891L21.7793 65.4062V65.7578L21.9023 65.875V66.1094L22.0254 66.2266V66.3438L22.1484 66.4609V66.5781L22.3945 66.8125V66.9297L23.502 67.9844H23.625L23.748 68.1016H23.8711L23.9941 68.2188H24.1172L24.2402 68.3359H24.3633L24.4863 68.4531H24.7324L24.8555 68.5703H25.4707L25.5938 68.6875H26.4551L26.5781 68.5703H27.1934L27.3164 68.4531H27.5625L27.6855 68.3359H27.8086L27.9316 68.2188H28.0547L28.1777 68.1016H28.3008L28.5469 67.8672H28.6699L29.5312 67.0469V66.9297L29.7773 66.6953V66.5781L29.9004 66.4609V66.3438L30.0234 66.2266V66.1094L30.1465 65.9922V65.7578L30.2695 65.6406V65.2891L30.3926 65.1719V63.6484L30.2695 63.5312V63.0625L30.1465 62.9453V62.8281L30.0234 62.7109V62.4766L29.7773 62.2422V62.125L29.6543 62.0078V61.8906L28.5469 60.8359H28.4238L28.1777 60.6016H28.0547L27.9316 60.4844H27.8086L27.6855 60.3672H27.4395L27.3164 60.25H26.9473L26.8242 60.1328H25.1016Z" fill="#ECE8E5"/>
<path d="M43.4355 38.9219L43.3125 39.0391H42.8203L42.6973 39.1562H42.3281L42.2051 39.2734H41.959L41.8359 39.3906H41.7129L41.5898 39.5078H41.4668L41.3438 39.625H41.0977L40.8516 39.8594H40.7285L40.6055 39.9766H40.4824L40.1133 40.3281H39.9902L38.7598 41.5V41.6172L38.5137 41.8516V41.9688L38.2676 42.2031V42.3203L38.1445 42.4375V42.5547L38.0215 42.6719V42.7891L37.8984 42.9062V43.0234L37.7754 43.1406V43.375L37.6523 43.4922V43.7266L37.5293 43.8438V44.0781L37.4062 44.1953V44.6641L37.2832 44.7812V47.125L37.4062 47.2422V47.7109L37.5293 47.8281V48.1797L37.6523 48.2969V48.4141L37.7754 48.5312V48.7656L37.8984 48.8828V49L38.0215 49.1172V49.2344L38.2676 49.4688V49.5859L38.5137 49.8203V49.9375L38.8828 50.2891V50.4062L39.375 50.875V50.7578L39.6211 50.5234V50.4062L39.8672 50.1719V50.0547L40.2363 49.7031V49.5859L40.6055 49.2344V49.1172L41.3438 48.4141V48.2969L43.8047 45.9531H43.9277L44.543 45.3672H44.666L45.0352 45.0156H45.1582L45.5273 44.6641H45.6504L45.7734 44.5469H45.8965L46.1426 44.3125H46.2656L46.5117 44.0781H46.6348L46.7578 43.9609H46.8809L47.0039 43.8438H47.127L47.25 43.7266H47.373L47.4961 43.6094H47.6191L47.7422 43.4922H47.8652L47.9883 43.375H48.2344L48.3574 43.2578H48.4805L48.6035 43.1406H48.8496L48.9727 43.0234H49.0957L49.2188 42.9062H49.4648L49.5879 42.7891H49.957L50.0801 42.6719H50.3262L50.4492 42.5547H50.9414L51.0645 42.4375H51.1875L50.8184 42.0859V41.9688L50.5723 41.7344V41.6172L49.3418 40.4453H49.2188L48.8496 40.0938H48.7266L48.6035 39.9766H48.4805L48.2344 39.7422H48.1113L47.9883 39.625H47.8652L47.7422 39.5078H47.4961L47.373 39.3906H47.25L47.127 39.2734H46.8809L46.7578 39.1562H46.3887L46.2656 39.0391H45.7734L45.6504 38.9219H43.4355Z" fill="#ECE8E5"/>
<path d="M53.4023 24.0391L53.2793 24.1562H52.1719L52.0488 24.2734H51.1875L51.0645 24.3906H50.4492L50.3262 24.5078H49.834L49.7109 24.625H49.2188L49.0957 24.7422H48.7266L48.6035 24.8594H48.2344L48.1113 24.9766H47.7422L47.6191 25.0938H47.373L47.25 25.2109H47.0039L46.8809 25.3281H46.6348L46.5117 25.4453H46.2656L46.1426 25.5625H45.8965L45.7734 25.6797H45.5273L45.4043 25.7969H45.1582L45.0352 25.9141H44.9121L44.7891 26.0312H44.543L44.4199 26.1484H44.2969L44.1738 26.2656H44.0508L43.9277 26.3828H43.6816L43.5586 26.5H43.4355L43.3125 26.6172H43.1895L43.0664 26.7344H42.9434L42.8203 26.8516H42.6973L42.5742 26.9688H42.4512L42.3281 27.0859H42.2051L42.082 27.2031H41.959L41.7129 27.4375H41.5898L41.4668 27.5547H41.3438L41.0977 27.7891H40.9746L40.8516 27.9062H40.7285L40.4824 28.1406H40.3594L40.1133 28.375H39.9902L39.7441 28.6094H39.6211L39.252 28.9609H39.1289L38.8828 29.1953H38.7598L38.5137 29.4297H38.3906L38.1445 29.6641H38.0215L37.6523 30.0156H37.5293L37.4062 30.1328H37.2832L37.0371 30.3672H36.9141L36.668 30.6016H36.5449L36.2988 30.8359H36.1758L35.9297 31.0703H35.8066L35.6836 31.1875H35.5605L35.3145 31.4219H35.1914L34.9453 31.6562H34.8223L34.6992 31.7734H34.5762L34.4531 31.8906H34.3301L34.084 32.125H33.9609L33.8379 32.2422H33.7148L33.5918 32.3594H33.4688L33.3457 32.4766H33.2227L33.0996 32.5938H32.9766L32.7305 32.8281H32.6074L32.4844 32.9453H32.2383L32.1152 33.0625H31.9922L31.8691 33.1797H31.7461L31.623 33.2969H31.5L31.377 33.4141H31.2539L31.1309 33.5312H30.8848L30.7617 33.6484H30.6387L30.5156 33.7656H30.2695L30.1465 33.8828H29.9004L29.7773 34H29.5312L29.4082 34.1172H29.1621L29.0391 34.2344H28.5469L28.4238 34.3516H28.0547V34.9375L27.9316 35.0547V38.4531L28.0547 38.5703V39.2734L28.1777 39.3906V39.8594L28.3008 39.9766V40.3281L28.4238 40.4453V40.5625L28.6699 40.7969V40.9141L28.916 41.1484H29.0391L29.2852 41.3828H29.4082L29.5312 41.5H29.6543L29.7773 41.6172H29.9004L30.0234 41.7344H30.1465L30.2695 41.8516H30.5156L30.6387 41.9688H31.1309L31.2539 42.0859H31.8691L31.9922 42.2031H34.9453V41.9688L35.0684 41.8516V41.7344L35.1914 41.6172V41.5L35.3145 41.3828V41.1484L35.5605 40.9141V40.7969L35.6836 40.6797V40.5625L35.9297 40.3281V40.2109L36.1758 39.9766V39.8594L36.5449 39.5078V39.3906L38.0215 37.9844H38.1445L38.5137 37.6328H38.6367L38.8828 37.3984H39.0059L39.252 37.1641H39.375L39.498 37.0469H39.6211L39.7441 36.9297H39.8672L39.9902 36.8125H40.1133L40.2363 36.6953H40.3594L40.4824 36.5781H40.6055L40.7285 36.4609H40.9746L41.0977 36.3438H41.3438L41.4668 36.2266H41.7129L41.8359 36.1094H42.2051L42.3281 35.9922H42.9434L43.0664 35.875H45.8965L46.0195 35.9922H46.6348L46.7578 36.1094H47.25L47.373 36.2266H47.6191L47.7422 36.3438H47.9883L48.1113 36.4609H48.3574L48.4805 36.5781H48.6035L48.7266 36.6953H48.9727L49.0957 36.8125H49.2188L49.3418 36.9297H49.4648L49.7109 37.1641H49.834L49.957 37.2812H50.0801L50.3262 37.5156H50.4492L50.6953 37.75H50.8184L51.3105 38.2188H51.4336L52.7871 39.5078V39.625L53.1562 39.9766V40.0938L53.5254 40.4453V40.5625L53.6484 40.6797V40.7969L53.8945 41.0312V41.1484L54.0176 41.2656V41.3828L54.1406 41.5V41.6172L54.2637 41.7344V41.9688L54.3867 42.0859V42.2031H57.4629L57.5859 42.3203H84.9023L85.0254 42.2031L85.1484 42.3203H85.5176L85.6406 42.2031H97.084L96.9609 42.0859V41.5L96.8379 41.3828V40.9141L96.7148 40.7969V40.4453L96.5918 40.3281V40.0938L96.4688 39.9766V39.7422L96.3457 39.625V39.3906L96.2227 39.2734V39.1562L95.9766 38.9219V38.8047L95.7305 38.5703V38.4531L94.623 37.3984H94.5L94.2539 37.1641H94.1309L93.8848 36.9297H93.7617L93.5156 36.6953H93.3926L93.1465 36.4609H93.0234L92.9004 36.3438H92.7773L92.6543 36.2266H92.5312L92.4082 36.1094H92.2852L92.1621 35.9922H92.0391L91.916 35.875H91.6699L91.5469 35.7578H91.4238L91.3008 35.6406H91.0547L90.9316 35.5234H90.8086L90.6855 35.4062H90.4395L90.3164 35.2891H90.0703L89.9473 35.1719H89.7012L89.5781 35.0547H89.209L89.0859 34.9375H88.8398L88.7168 34.8203H88.3477L88.2246 34.7031H87.8555L87.7324 34.5859H87.2402L87.1172 34.4688H86.625L86.502 34.3516H86.0098L85.8867 34.2344H85.1484L85.0254 34.1172H84.4102L84.2871 34H83.5488L83.4258 33.8828H82.6875L82.5645 33.7656H81.8262L81.7031 33.6484H81.2109L81.0879 33.5312H80.5957L80.4727 33.4141H80.1035L79.9805 33.2969H79.7344L79.6113 33.1797H79.3652L79.2422 33.0625H78.9961L78.873 32.9453H78.75L78.627 32.8281H78.3809L78.2578 32.7109H78.1348L78.0117 32.5938H77.8887L77.7656 32.4766H77.6426L77.5195 32.3594H77.3965L77.2734 32.2422H77.1504L77.0273 32.125H76.9043L76.7812 32.0078H76.6582L76.4121 31.7734H76.2891L76.166 31.6562H76.043L75.7969 31.4219H75.6738L75.5508 31.3047H75.4277L75.1816 31.0703H75.0586L74.9355 30.9531H74.8125L74.4434 30.6016H74.3203L74.0742 30.3672H73.9512L73.582 30.0156H73.459L73.0898 29.6641H72.9668L72.7207 29.4297H72.5977L72.2285 29.0781H72.1055L71.8594 28.8438H71.7363L71.3672 28.4922H71.2441L70.998 28.2578H70.875L70.6289 28.0234H70.5059L70.2598 27.7891H70.1367L70.0137 27.6719H69.8906L69.6445 27.4375H69.5215L69.3984 27.3203H69.2754L69.1523 27.2031H69.0293L68.9062 27.0859H68.7832L68.5371 26.8516H68.4141L68.291 26.7344H68.168L68.0449 26.6172H67.9219L67.7988 26.5H67.6758L67.5527 26.3828H67.3066L67.1836 26.2656H67.0605L66.9375 26.1484H66.6914L66.5684 26.0312H66.4453L66.3223 25.9141H66.0762L65.9531 25.7969H65.8301L65.707 25.6797H65.4609L65.3379 25.5625H65.0918L64.9688 25.4453H64.7227L64.5996 25.3281H64.3535L64.2305 25.2109H63.8613L63.7383 25.0938H63.3691L63.2461 24.9766H63L62.877 24.8594H62.5078L62.3848 24.7422H61.8926L61.7695 24.625H61.2773L61.1543 24.5078H60.6621L60.5391 24.3906H59.8008L59.6777 24.2734H58.8164L58.6934 24.1562H57.4629L57.3398 24.0391H53.4023Z" fill="#ECE8E5"/>
<path d="M0 -10V109H126V-10H0ZM115.408 58.0499L115.531 57.9335H118.364L118.487 58.0499V71.6598L118.364 71.7761H115.531L115.408 71.6598V58.0499ZM100.504 58.0499L100.628 57.9335H108.387L108.51 58.0499H109.249L109.372 58.1662H109.742L109.865 58.2825H109.988L110.111 58.3988H110.358L110.481 58.5151H110.604L110.85 58.7478H110.974L111.836 59.5621V59.6784L112.082 59.911V60.0274L112.205 60.1437V60.3763L112.328 60.4927V60.8416L112.452 60.958V62.4702L112.328 62.5865V62.8192L112.205 62.9355V63.0518L112.082 63.1681V63.2844L111.959 63.4008V63.5171L110.974 64.4477H110.85L110.727 64.564H110.85L110.974 64.6803H111.097L111.343 64.913H111.466L112.328 65.7273V65.8436L112.575 66.0762V66.1926L112.698 66.3089V66.5415L112.821 66.6579V66.8905L112.944 67.0068V68.5191L112.821 68.6354V68.868L112.698 68.9844V69.217L112.575 69.3333V69.4496L112.452 69.566V69.6823L112.328 69.7986V69.915L111.22 70.9619H111.097L110.85 71.1945H110.727L110.604 71.3108H110.358L110.235 71.4272H109.988L109.865 71.5435H109.496L109.372 71.6598H108.141L108.018 71.7761H100.628L100.504 71.6598V58.0499ZM65.2786 58.0499L65.4018 57.9335H68.8504L69.0968 58.1662V58.2825L69.2199 58.3988V58.5151L69.3431 58.6315V58.7478L69.4663 58.8641V58.9804L69.5894 59.0968V59.2131L69.7126 59.3294V59.4457L69.8358 59.5621V59.6784L69.9589 59.7947V59.911L70.0821 60.0274V60.1437L70.2053 60.26V60.3763L70.3284 60.4927V60.609L70.4516 60.7253V60.8416L70.5748 60.958V61.0743L70.6979 61.1906V61.3069L70.8211 61.4233V61.5396L70.9443 61.6559V61.7722L71.0674 61.8886V62.0049L71.1906 62.1212V62.2375L71.437 62.4702V62.5865L71.5601 62.7028V62.8192L71.6833 62.9355V63.0518L71.8065 63.1681V63.2844L71.9296 63.4008V63.5171L72.0528 63.6334V63.7498L72.176 63.8661V63.9824L72.2991 64.0987V64.2151L72.4223 64.3314V64.4477L72.5455 64.564V64.6803L72.6686 64.7967V64.913L72.7918 65.0293V65.1456L72.915 65.262V65.3783L73.0381 65.4946V65.262L73.1613 65.1456V65.0293L73.2845 64.913V64.7967L73.4076 64.6803V64.564L73.5308 64.4477V64.3314L73.654 64.2151V64.0987L73.7771 63.9824V63.8661L73.9003 63.7498V63.6334L74.0235 63.5171V63.4008L74.1466 63.2844V63.1681L74.2698 63.0518V62.9355L74.393 62.8192V62.7028L74.5161 62.5865V62.4702L74.6393 62.3539V62.2375L74.8856 62.0049V61.7722L75.132 61.5396V61.4233L75.2551 61.3069V61.1906L75.3783 61.0743V60.958L75.5015 60.8416V60.7253L75.6246 60.609V60.4927L75.7478 60.3763V60.26L75.871 60.1437V60.0274L75.9941 59.911V59.7947L76.1173 59.6784V59.5621L76.2405 59.4457V59.3294L76.3636 59.2131V59.0968L76.4868 58.9804V58.8641L76.61 58.7478V58.6315L76.7331 58.5151V58.3988L76.8563 58.2825V58.1662L77.1026 57.9335H80.5513L80.6745 58.0499V71.6598L80.5513 71.7761H80.4282L80.305 71.6598L80.1818 71.7761L80.0587 71.6598L79.9355 71.7761H77.7185L77.5953 71.6598V62.7028V62.8192L77.4721 62.9355V63.0518L77.349 63.1681V63.2844L77.2258 63.4008V63.5171L77.1026 63.6334V63.7498L76.9795 63.8661V63.9824L76.8563 64.0987V64.2151L76.7331 64.3314V64.4477L76.61 64.564V64.6803L76.4868 64.7967V64.913L76.2405 65.1456V65.3783L76.1173 65.4946V65.6109L75.871 65.8436V66.0762L75.7478 66.1926V66.3089L75.5015 66.5415V66.6579L75.3783 66.7742V66.8905L75.2551 67.0068V67.1232L75.132 67.2395V67.3558L75.0088 67.4721V67.5885L74.8856 67.7048V67.8211L74.7625 67.9374V68.0538L74.6393 68.1701V68.2864L74.5161 68.4027V68.5191L74.393 68.6354V68.7517L74.2698 68.868V68.9844L74.1466 69.1007V69.217L74.0235 69.3333H71.8065L71.6833 69.217V69.1007L71.5601 68.9844V68.868L71.437 68.7517V68.6354L71.3138 68.5191V68.4027L71.1906 68.2864V68.1701L71.0674 68.0538V67.9374L70.9443 67.8211V67.7048L70.8211 67.5885V67.4721L70.6979 67.3558V67.2395L70.5748 67.1232V67.0068L70.4516 66.8905V66.7742L70.3284 66.6579V66.5415L70.2053 66.4252V66.3089L70.0821 66.1926V66.0762L69.9589 65.9599V65.8436L69.8358 65.7273V65.6109L69.7126 65.4946V65.3783L69.5894 65.262V65.0293L69.4663 64.913V64.7967L69.3431 64.6803V64.564L69.2199 64.4477V64.3314L69.0968 64.2151V64.0987L68.9736 63.9824V63.8661L68.8504 63.7498V63.6334L68.7273 63.5171V63.4008L68.6041 63.2844V63.1681L68.4809 63.0518V62.9355L68.3578 62.8192V62.7028V71.6598L68.2346 71.7761H65.4018L65.2786 71.6598V58.0499ZM54.6862 58.0499L54.8094 57.9335H57.8886L58.1349 58.1662V58.2825L58.2581 58.3988V58.6315L58.3812 58.7478V58.9804L58.5044 59.0968V59.2131L58.6276 59.3294V59.5621L58.7507 59.6784V59.7947L58.8739 59.911V60.1437L58.9971 60.26V60.3763L59.1202 60.4927V60.7253L59.2434 60.8416V60.958L59.3666 61.0743V61.3069L59.4897 61.4233V61.5396L59.6129 61.6559V61.8886L59.7361 62.0049V62.2375L59.8592 62.3539V62.4702L59.9824 62.5865V62.8192L60.1056 62.9355V63.0518L60.2287 63.1681V63.4008L60.3519 63.5171V63.6334L60.4751 63.7498V63.9824L60.5982 64.0987V64.3314L60.7214 64.4477V64.564L60.8446 64.6803V64.913L60.9677 65.0293V65.1456L61.0909 65.262V65.4946L61.2141 65.6109V65.7273L61.3372 65.8436V66.0762L61.4604 66.1926V66.4252L61.5836 66.5415V66.6579L61.7067 66.7742V67.0068L61.8299 67.1232V67.2395L61.9531 67.3558V67.5885L62.0762 67.7048V67.8211L62.1994 67.9374V68.1701L62.3226 68.2864V68.5191L62.4457 68.6354V68.7517L62.5689 68.868V69.1007L62.6921 69.217V69.3333L62.8152 69.4496V69.6823L62.9384 69.7986V69.915L63.0616 70.0313V70.2639L63.1848 70.3803V70.4966L63.3079 70.6129V70.8455L63.4311 70.9619V71.1945L63.5543 71.3108V71.4272L63.6774 71.5435V71.6598L63.5543 71.7761H62.6921L62.5689 71.6598H62.0762L61.9531 71.7761L61.8299 71.6598H61.4604L61.3372 71.7761H61.0909L60.9677 71.6598H60.5982L60.4751 71.7761H60.3519L60.2287 71.6598V71.5435L60.1056 71.4272V71.1945L59.9824 71.0782V70.8455L59.8592 70.7292V70.4966L59.7361 70.3803V70.2639L59.6129 70.1476V69.915L59.4897 69.7986V69.566L59.3666 69.4496V69.217L59.2434 69.1007V68.868H53.4545V69.1007L53.3314 69.217V69.4496L53.2082 69.566V69.7986L53.085 69.915V70.1476L52.9619 70.2639V70.4966L52.8387 70.6129V70.7292L52.7155 70.8455V71.0782L52.5924 71.1945V71.4272L52.4692 71.5435V71.6598L52.346 71.7761H51.8534L51.7302 71.6598L51.607 71.7761H51.3607L51.2375 71.6598L51.1144 71.7761H50.868L50.7449 71.6598L50.6217 71.7761L50.4985 71.6598L50.3754 71.7761L50.2522 71.6598L50.129 71.7761H49.1437L49.0205 71.6598V71.5435L49.1437 71.4272V71.3108L49.2669 71.1945V70.9619L49.39 70.8455V70.7292L49.5132 70.6129V70.3803L49.6364 70.2639V70.1476L49.7595 70.0313V69.7986L49.8827 69.6823V69.566L50.0059 69.4496V69.217L50.129 69.1007V68.9844L50.2522 68.868V68.6354L50.3754 68.5191V68.2864L50.4985 68.1701V68.0538L50.6217 67.9374V67.7048L50.7449 67.5885V67.4721L50.868 67.3558V67.1232L50.9912 67.0068V66.8905L51.1144 66.7742V66.5415L51.2375 66.4252V66.3089L51.3607 66.1926V65.9599L51.4839 65.8436V65.7273L51.607 65.6109V65.3783L51.7302 65.262V65.1456L51.8534 65.0293V64.7967L51.9765 64.6803V64.564L52.0997 64.4477V64.2151L52.2229 64.0987V63.8661L52.346 63.7498V63.6334L52.4692 63.5171V63.2844L52.5924 63.1681V63.0518L52.7155 62.9355V62.7028L52.8387 62.5865V62.4702L52.9619 62.3539V62.1212L53.085 62.0049V61.8886L53.2082 61.7722V61.5396L53.3314 61.4233V61.3069L53.4545 61.1906V60.958L53.5777 60.8416V60.609L53.7009 60.4927V60.3763L53.824 60.26V60.0274L53.9472 59.911V59.7947L54.0704 59.6784V59.4457L54.1935 59.3294V59.2131L54.3167 59.0968V58.8641L54.4399 58.7478V58.6315L54.563 58.5151V58.2825L54.6862 58.1662V58.0499ZM7.8827 58.0499L8.00587 57.9335H10.9619L11.085 58.0499V68.9844H17.9824L18.1056 69.1007V71.6598L17.9824 71.7761H8.12903L7.8827 71.5435V58.0499ZM89.912 57.8172L90.0352 57.7009H91.2669L91.39 57.8172H92.129L92.2522 57.9335H92.6217L92.7449 58.0499H92.9912L93.1144 58.1662H93.3607L93.4839 58.2825H93.7302L93.8534 58.3988H93.9765L94.0997 58.5151H94.2229L94.346 58.6315H94.4692L94.7155 58.8641H94.8387L94.9619 58.9804H95.085L95.4545 59.3294H95.5777L96.8094 60.4927V60.609L97.1789 60.958V61.0743L97.3021 61.1906V61.3069L97.5484 61.5396V61.6559L97.6716 61.7722V62.0049L97.7947 62.1212V62.2375L97.9179 62.3539V62.5865L98.0411 62.7028V62.9355L98.1642 63.0518V63.5171L98.2874 63.6334V65.9599L98.1642 66.0762V66.5415L98.0411 66.6579V67.0068L97.9179 67.1232V67.3558L97.7947 67.4721V67.5885L97.6716 67.7048V67.8211L97.5484 67.9374V68.0538L97.4252 68.1701V68.2864L97.3021 68.4027V68.5191L97.0557 68.7517V68.868L96.6862 69.217V69.3333L95.7009 70.2639H95.5777L95.2082 70.6129H95.085L94.8387 70.8455H94.7155L94.5924 70.9619H94.4692L94.346 71.0782H94.2229L94.0997 71.1945H93.9765L93.8534 71.3108H93.7302L93.607 71.4272H93.3607L93.2375 71.5435H92.9912L92.868 71.6598H92.4985L92.3754 71.7761H91.7595L91.6364 71.8925H89.6657L89.5425 71.7761H88.9267L88.8035 71.6598H88.434L88.3109 71.5435H88.0645L87.9413 71.4272H87.695L87.5718 71.3108H87.4487L87.3255 71.1945H87.2023L87.0792 71.0782H86.956L86.8328 70.9619H86.7097L86.4633 70.7292H86.3402L86.0938 70.4966H85.9707L84.3695 68.9844V68.868L84.1232 68.6354V68.5191L84 68.4027V68.2864L83.7537 68.0538V67.9374L83.6305 67.8211V67.5885L83.5073 67.4721V67.3558L83.3842 67.2395V67.0068L83.261 66.8905V66.5415L83.1378 66.4252V65.9599L83.0147 65.8436V63.7498L83.1378 63.6334V63.1681L83.261 63.0518V62.7028L83.3842 62.5865V62.4702L83.5073 62.3539V62.1212L83.6305 62.0049V61.8886L83.7537 61.7722V61.6559L83.8768 61.5396V61.4233L84 61.3069V61.1906L84.2463 60.958V60.8416L84.4927 60.609V60.4927L85.8475 59.2131H85.9707L86.3402 58.8641H86.4633L86.5865 58.7478H86.7097L86.956 58.5151H87.0792L87.2023 58.3988H87.4487L87.5718 58.2825H87.695L87.8182 58.1662H88.0645L88.1877 58.0499H88.434L88.5572 57.9335H89.0499L89.173 57.8172H89.912ZM41.5073 57.8172L41.6305 57.7009H42.9853L43.1085 57.8172H43.7243L43.8475 57.9335H44.217L44.3402 58.0499H44.5865L44.7097 58.1662H44.956L45.0792 58.2825H45.3255L45.4487 58.3988H45.5718L45.695 58.5151H45.8182L45.9413 58.6315H46.0645L46.3109 58.8641H46.434L46.8035 59.2131H46.9267L48.1584 60.3763V60.4927L48.5279 60.8416V60.958L48.651 61.0743V61.1906L48.5279 61.3069H48.4047L48.2815 61.4233H48.1584L48.0352 61.5396H47.912L47.7889 61.6559H47.6657L47.5425 61.7722H47.4194L47.173 62.0049H47.0499L46.9267 62.1212H46.8035L46.6804 62.2375H46.5572L46.434 62.3539H46.3109L46.0645 62.5865H45.9413L45.8182 62.4702V62.3539L45.5718 62.1212V62.0049L44.8328 61.3069H44.7097L44.4633 61.0743H44.3402L44.0938 60.8416H43.8475L43.7243 60.7253H43.6012L43.478 60.609H43.1085L42.9853 60.4927H41.7537L41.6305 60.609H41.261L41.1378 60.7253H40.8915L40.7683 60.8416H40.6452L40.522 60.958H40.3988L40.2757 61.0743H40.1525L39.9062 61.3069H39.783L39.044 62.0049V62.1212L38.7977 62.3539V62.4702L38.6745 62.5865V62.7028L38.5513 62.8192V62.9355L38.4282 63.0518V63.1681L38.305 63.2844V63.6334L38.1818 63.7498V64.3314L38.0587 64.4477V65.0293L38.1818 65.1456V65.8436L38.305 65.9599V66.3089L38.4282 66.4252V66.5415L38.5513 66.6579V66.7742L38.6745 66.8905V67.0068L38.7977 67.1232V67.2395L39.044 67.4721V67.5885L39.783 68.2864H39.9062L40.1525 68.5191H40.2757L40.3988 68.6354H40.522L40.6452 68.7517H40.8915L41.0147 68.868H41.261L41.3842 68.9844H41.8768L42 69.1007H42.8622L42.9853 68.9844H43.3548L43.478 68.868H43.7243L43.8475 68.7517H44.0938L44.217 68.6354H44.3402L44.5865 68.4027H44.7097L45.0792 68.0538H45.2023L45.5718 67.7048V67.5885L46.0645 67.1232L46.1877 67.2395H46.3109L46.434 67.3558H46.5572L46.8035 67.5885H46.9267L47.0499 67.7048H47.173L47.2962 67.8211H47.4194L47.6657 68.0538H47.7889L47.912 68.1701H48.0352L48.1584 68.2864H48.2815L48.4047 68.4027H48.5279L48.651 68.5191V68.6354L48.5279 68.7517V68.868L48.1584 69.217V69.3333L47.0499 70.3803H46.9267L46.5572 70.7292H46.434L46.3109 70.8455H46.1877L45.9413 71.0782H45.8182L45.695 71.1945H45.5718L45.4487 71.3108H45.2023L45.0792 71.4272H44.956L44.8328 71.5435H44.5865L44.4633 71.6598H44.0938L43.9707 71.7761H43.478L43.3548 71.8925H41.3842L41.261 71.7761H40.6452L40.522 71.6598H40.2757L40.1525 71.5435H39.9062L39.783 71.4272H39.5367L39.4135 71.3108H39.2903L39.1672 71.1945H39.044L38.9208 71.0782H38.7977L38.6745 70.9619H38.5513L38.4282 70.8455H38.305L38.0587 70.6129H37.9355L37.566 70.2639H37.4428L36.4575 69.3333V69.217L36.088 68.868V68.7517L35.8416 68.5191V68.4027L35.7185 68.2864V68.1701L35.5953 68.0538V67.9374L35.4721 67.8211V67.7048L35.349 67.5885V67.4721L35.2258 67.3558V67.1232L35.1026 67.0068V66.6579L34.9795 66.5415V66.0762L34.8563 65.9599V63.8661L34.9795 63.7498V63.2844L35.1026 63.1681V62.8192L35.2258 62.7028V62.4702L35.349 62.3539V62.2375L35.4721 62.1212V61.8886L35.5953 61.7722V61.6559L35.7185 61.5396V61.4233L35.9648 61.1906V61.0743L36.2111 60.8416V60.7253L36.5806 60.3763V60.26L37.4428 59.4457H37.566L37.9355 59.0968H38.0587L38.4282 58.7478H38.5513L38.6745 58.6315H38.7977L38.9208 58.5151H39.044L39.1672 58.3988H39.2903L39.4135 58.2825H39.5367L39.6598 58.1662H39.9062L40.0293 58.0499H40.2757L40.3988 57.9335H40.7683L40.8915 57.8172H41.5073ZM25.3724 57.8172L25.4956 57.7009H26.6041L26.7273 57.8172H27.4663L27.5894 57.9335H28.0821L28.2053 58.0499H28.4516L28.5748 58.1662H28.8211L28.9443 58.2825H29.0674L29.1906 58.3988H29.3138L29.437 58.5151H29.5601L29.6833 58.6315H29.8065L29.9296 58.7478H30.0528L30.2991 58.9804H30.4223L30.6686 59.2131H30.7918L32.2698 60.609V60.7253L32.5161 60.958V61.0743L32.7625 61.3069V61.4233L32.8856 61.5396V61.6559L33.0088 61.7722V61.8886L33.132 62.0049V62.1212L33.2551 62.2375V62.4702L33.3783 62.5865V62.8192L33.5015 62.9355V63.4008L33.6246 63.5171V64.3314L33.7478 64.4477V65.3783L33.6246 65.4946V66.1926L33.5015 66.3089V66.7742L33.3783 66.8905V67.1232L33.2551 67.2395V67.4721L33.132 67.5885V67.7048L33.0088 67.8211V67.9374L32.8856 68.0538V68.1701L32.7625 68.2864V68.4027L32.6393 68.5191V68.6354L32.393 68.868V68.9844L31.9003 69.4496V69.566L31.2845 70.1476H31.1613L30.6686 70.6129H30.5455L30.2991 70.8455H30.176L30.0528 70.9619H29.9296L29.8065 71.0782H29.6833L29.5601 71.1945H29.437L29.3138 71.3108H29.1906L29.0674 71.4272H28.8211L28.6979 71.5435H28.4516L28.3284 71.6598H27.9589L27.8358 71.7761H27.2199L27.0968 71.8925H25.0029L24.8798 71.7761H24.2639L24.1408 71.6598H23.7713L23.6481 71.5435H23.4018L23.2786 71.4272H23.1554L23.0323 71.3108H22.7859L22.6628 71.1945H22.5396L22.4164 71.0782H22.2933L22.0469 70.8455H21.9238L21.8006 70.7292H21.6774L21.3079 70.3803H21.1848L19.9531 69.217V69.1007L19.5836 68.7517V68.6354L19.3372 68.4027V68.2864L19.2141 68.1701V68.0538L19.0909 67.9374V67.8211L18.9677 67.7048V67.5885L18.8446 67.4721V67.2395L18.7214 67.1232V66.8905L18.5982 66.7742V66.4252L18.4751 66.3089V65.7273L18.3519 65.6109V63.9824L18.4751 63.8661V63.2844L18.5982 63.1681V62.8192L18.7214 62.7028V62.4702L18.8446 62.3539V62.1212L18.9677 62.0049V61.8886L19.0909 61.7722V61.6559L19.2141 61.5396V61.4233L19.4604 61.1906V61.0743L19.7067 60.8416V60.7253L20.0762 60.3763V60.26L20.8152 59.5621H20.9384L21.4311 59.0968H21.5543L21.8006 58.8641H21.9238L22.1701 58.6315H22.2933L22.4164 58.5151H22.5396L22.6628 58.3988H22.9091L23.0323 58.2825H23.1554L23.2786 58.1662H23.5249L23.6481 58.0499H23.8944L24.0176 57.9335H24.5103L24.6334 57.8172H25.3724ZM53.9472 21.8729L54.0704 21.7566H56.6569L56.7801 21.8729H58.3812L58.5044 21.9892H59.6129L59.7361 22.1056H60.5982L60.7214 22.2219H61.2141L61.3372 22.3382H61.8299L61.9531 22.4545H62.4457L62.5689 22.5709H63.0616L63.1848 22.6872H63.5543L63.6774 22.8035H64.0469L64.1701 22.9198H64.5396L64.6628 23.0362H64.9091L65.0323 23.1525H65.2786L65.4018 23.2688H65.6481L65.7713 23.3851H66.0176L66.1408 23.5015H66.3871L66.5103 23.6178H66.7566L66.8798 23.7341H67.1261L67.2493 23.8504H67.3724L67.4956 23.9668H67.7419L67.8651 24.0831H67.9883L68.1114 24.1994H68.3578L68.4809 24.3157H68.6041L68.7273 24.4321H68.8504L68.9736 24.5484H69.0968L69.2199 24.6647H69.3431L69.4663 24.781H69.5894L69.7126 24.8974H69.8358L69.9589 25.0137H70.0821L70.2053 25.13H70.3284L70.4516 25.2463H70.5748L70.6979 25.3627H70.8211L70.9443 25.479H71.0674L71.3138 25.7116H71.437L71.6833 25.9443H71.8065L72.0528 26.1769H72.176L72.2991 26.2933H72.4223L72.6686 26.5259H72.7918L73.1613 26.8749H73.2845L73.5308 27.1075H73.654L73.9003 27.3402H74.0235L74.2698 27.5728H74.393L74.6393 27.8055H74.7625L75.0088 28.0381H75.132L75.5015 28.3871H75.6246L75.871 28.6197H75.9941L76.3636 28.9687H76.4868L76.8563 29.3177H76.9795L77.2258 29.5503H77.349L77.5953 29.783H77.7185L77.8416 29.8993H77.9648L78.2111 30.132H78.3343L78.4575 30.2483H78.5806L78.7038 30.3646H78.827L78.9501 30.4809H79.0733L79.1965 30.5973H79.3196L79.4428 30.7136H79.6891L79.8123 30.8299H79.9355L80.0587 30.9462H80.305L80.4282 31.0626H80.6745L80.7977 31.1789H81.1672L81.2903 31.2952H81.6598L81.783 31.4115H82.2757L82.3988 31.5279H83.0147L83.1378 31.6442H83.8768L84 31.7605H84.739L84.8622 31.8768H85.6012L85.7243 31.9932H86.3402L86.4633 32.1095H87.0792L87.2023 32.2258H87.695L87.8182 32.3421H88.3109L88.434 32.4585H88.8035L88.9267 32.5748H89.2962L89.4194 32.6911H89.7889L89.912 32.8074H90.1584L90.2815 32.9237H90.5279L90.651 33.0401H91.0205L91.1437 33.1564H91.39L91.5132 33.2727H91.6364L91.7595 33.3891H92.0059L92.129 33.5054H92.2522L92.3754 33.6217H92.6217L92.7449 33.738H92.868L92.9912 33.8543H93.1144L93.2375 33.9707H93.4839L93.607 34.087H93.7302L93.8534 34.2033H93.9765L94.0997 34.3196H94.2229L94.4692 34.5523H94.5924L94.7155 34.6686H94.8387L94.9619 34.7849H95.085L95.3314 35.0176H95.4545L95.7009 35.2502H95.824L96.1935 35.5992H96.3167L96.6862 35.9482H96.8094L98.1642 37.2278V37.3441L98.5337 37.6931V37.8094L98.7801 38.042V38.1584L99.0264 38.391V38.5073L99.1496 38.6237V38.74L99.2727 38.8563V38.9726L99.3959 39.0889V39.2053L99.5191 39.3216V39.5543L99.6422 39.6706V39.9032L99.7654 40.0195V40.3685L99.8886 40.4848V40.8338L100.012 40.9501V41.5318L100.135 41.6481V42.5787L100.258 42.695V44.0909L100.135 44.2072V44.4399L100.012 44.5562V44.6725L99.8886 44.7889V44.9052L99.3959 45.3705H99.2727L99.0264 45.6031H98.7801L98.6569 45.7195H97.6716L97.5484 45.8358H57.1496L57.0264 45.7195H53.9472L53.824 45.8358H52.2229L52.0997 45.9521H51.4839L51.3607 46.0684H50.9912L50.868 46.1847H50.6217L50.4985 46.3011H50.2522L50.129 46.4174H49.8827L49.7595 46.5337H49.6364L49.5132 46.65H49.2669L49.1437 46.7664H49.0205L48.8974 46.8827H48.7742L48.651 46.999H48.5279L48.4047 47.1153H48.2815L48.0352 47.348H47.912L47.6657 47.5806H47.5425L47.4194 47.697H47.2962L46.9267 48.0459H46.8035L46.3109 48.5112H46.1877L45.0792 49.5582H44.956V49.6745L43.3548 51.1867V51.303L42.9853 51.652V51.7683L42.6158 52.1173V52.2336L42.4927 52.3499H36.2111L35.9648 52.1173V52.001L35.7185 51.7683V51.652L35.4721 51.4194V51.303L35.349 51.1867V51.0704L35.2258 50.9541V50.8377L35.1026 50.7214V50.6051L34.9795 50.4888V50.3724L34.8563 50.2561V50.0235L34.7331 49.9071V49.7908L34.61 49.6745V49.3255L34.4868 49.2092V48.9765L34.3636 48.8602V48.3949L34.2405 48.2786V47.5806L34.1173 47.4643V45.9521L34.2405 45.8358H32.7625L32.6393 45.7195H31.4076L31.2845 45.6031H30.7918L30.6686 45.4868H30.176L30.0528 45.3705H29.8065L29.6833 45.2541H29.437L29.3138 45.1378H29.0674L28.9443 45.0215H28.8211L28.6979 44.9052H28.5748L28.4516 44.7889H28.3284L28.2053 44.6725H28.0821L27.8358 44.4399H27.7126L27.4663 44.2072H27.3431L26.1114 43.044V42.9277L25.8651 42.695V42.5787L25.6188 42.346V42.1134L25.4956 41.9971V41.8807L25.3724 41.7644V41.5318L25.2493 41.4154V41.0665L25.1261 40.9501V40.4848L25.0029 40.3685V39.3216L24.8798 39.2053V35.5992L25.0029 35.4829V34.7849L25.1261 34.6686V34.2033L25.2493 34.087V33.8543L25.3724 33.738V33.5054L25.6188 33.2727V33.1564L26.2346 32.5748H26.3578L26.6041 32.3421H26.8504L26.9736 32.2258H27.3431L27.4663 32.1095H27.9589L28.0821 31.9932H28.4516L28.5748 31.8768H28.8211L28.9443 31.7605H29.1906L29.3138 31.6442H29.5601L29.6833 31.5279H29.8065L29.9296 31.4115H30.176L30.2991 31.2952H30.4223L30.5455 31.1789H30.6686L30.7918 31.0626H30.915L31.0381 30.9462H31.1613L31.2845 30.8299H31.4076L31.5308 30.7136H31.654L31.7771 30.5973H31.9003L32.0235 30.4809H32.1466L32.2698 30.3646H32.393L32.5161 30.2483H32.6393L32.8856 30.0156H33.0088L33.132 29.8993H33.2551L33.5015 29.6667H33.6246L33.7478 29.5503H33.871L34.1173 29.3177H34.2405L34.4868 29.085H34.61L34.8563 28.8524H34.9795L35.2258 28.6197H35.349L35.5953 28.3871H35.7185L35.9648 28.1544H36.088L36.3343 27.9218H36.4575L36.7038 27.6891H36.827L37.0733 27.4565H37.1965L37.4428 27.2239H37.566L37.8123 26.9912H37.9355L38.1818 26.7586H38.305L38.5513 26.5259H38.6745L38.9208 26.2933H39.044L39.2903 26.0606H39.4135L39.5367 25.9443H39.6598L39.9062 25.7116H40.0293L40.2757 25.479H40.3988L40.522 25.3627H40.6452L40.7683 25.2463H40.8915L41.0147 25.13H41.1378L41.261 25.0137H41.3842L41.5073 24.8974H41.6305L41.7537 24.781H41.8768L42 24.6647H42.1232L42.2463 24.5484H42.3695L42.4927 24.4321H42.6158L42.739 24.3157H42.8622L42.9853 24.1994H43.2317L43.3548 24.0831H43.478L43.6012 23.9668H43.7243L43.8475 23.8504H44.0938L44.217 23.7341H44.3402L44.4633 23.6178H44.7097L44.8328 23.5015H45.0792L45.2023 23.3851H45.4487L45.5718 23.2688H45.8182L45.9413 23.1525H46.1877L46.3109 23.0362H46.6804L46.8035 22.9198H47.0499L47.173 22.8035H47.5425L47.6657 22.6872H47.912L48.0352 22.5709H48.4047L48.5279 22.4545H49.0205L49.1437 22.3382H49.6364L49.7595 22.2219H50.3754L50.4985 22.1056H51.2375L51.3607 21.9892H52.346L52.4692 21.8729H53.9472Z" fill="#ECE8E5"/>
</g>
<defs>
<clipPath id="clip0_4_29">
<rect width="126" height="95" fill="white"/>
</clipPath>
</defs>
</svg>
