<svg width="39" height="27" viewBox="0 0 39 27" fill="none" xmlns="http://www.w3.org/2000/svg">
<path d="M2.16667 27C1.55278 27 1.03856 26.784 0.624007 26.352C0.209452 25.92 0.00145192 25.386 7.47125e-06 24.75C-0.00143697 24.114 0.206563 23.58 0.624007 23.148C1.04145 22.716 1.55567 22.5 2.16667 22.5H36.8333C37.4472 22.5 37.9622 22.716 38.3782 23.148C38.7942 23.58 39.0014 24.114 39 24.75C38.9985 25.386 38.7905 25.9207 38.376 26.3542C37.9614 26.7877 37.4472 27.003 36.8333 27H2.16667ZM2.16667 15.75C1.55278 15.75 1.03856 15.534 0.624007 15.102C0.209452 14.67 0.00145192 14.136 7.47125e-06 13.5C-0.00143697 12.864 0.206563 12.33 0.624007 11.898C1.04145 11.466 1.55567 11.25 2.16667 11.25H36.8333C37.4472 11.25 37.9622 11.466 38.3782 11.898C38.7942 12.33 39.0014 12.864 39 13.5C38.9985 14.136 38.7905 14.6707 38.376 15.1042C37.9614 15.5377 37.4472 15.753 36.8333 15.75H2.16667ZM2.16667 4.5C1.55278 4.5 1.03856 4.284 0.624007 3.852C0.209452 3.42 0.00145192 2.886 7.47125e-06 2.25C-0.00143697 1.614 0.206563 1.08 0.624007 0.648C1.04145 0.216 1.55567 0 2.16667 0H36.8333C37.4472 0 37.9622 0.216 38.3782 0.648C38.7942 1.08 39.0014 1.614 39 2.25C38.9985 2.886 38.7905 3.42075 38.376 3.85425C37.9614 4.28774 37.4472 4.503 36.8333 4.5H2.16667Z" fill="#333333"/>
</svg>
